<svg xmlns="http://www.w3.org/2000/svg" xmlns:xlink="http://www.w3.org/1999/xlink" viewBox="0 0 48 48" version="1.1">
<g id="surface1">
<path style=" fill:#EDE7F6;" d="M 44 24 C 44 35.046875 35.046875 44 24 44 C 12.953125 44 4 35.046875 4 24 C 4 12.953125 12.953125 4 24 4 C 35.046875 4 44 12.953125 44 24 Z "></path>
<path style=" fill:#BF360C;" d="M 18 18.25 L 30 18.25 L 30 31.75 L 18 31.75 Z "></path>
<path style=" fill:#FF1744;" d="M 24 44 C 28.480469 44 32.605469 42.507813 35.941406 40.019531 C 35.324219 32.640625 28 31 28 31 L 20 31 C 20 31 12.671875 32.613281 12.058594 40.019531 C 15.394531 42.507813 19.519531 44 24 44 Z "></path>
<path style=" fill:#FFC67B;" d="M 24 34.75 C 22.5625 34.75 20.5 31 20.5 31 L 20.5 26 L 27.5 26 L 27.5 31 C 27.5 31 25.4375 34.75 24 34.75 "></path>
<path style=" fill:#FFE0B2;" d="M 31 23 C 31 26.726563 27.726563 30 24 30 C 20.269531 30 17 26.726563 17 23 L 17 17 C 17 13.273438 31 11.273438 31 17 Z M 24 36 C 26.902344 36 27.5 31 27.5 31 C 27.5 31 25.636719 34 24 34 C 22.363281 34 20.5 31 20.5 31 C 20.5 31 21.097656 36 24 36 "></path>
<path style=" fill:#784719;" d="M 26 22 C 26 21.449219 26.449219 21 27 21 C 27.550781 21 28 21.449219 28 22 C 28 22.550781 27.550781 23 27 23 C 26.449219 23 26 22.550781 26 22 M 20 22 C 20 22.550781 20.449219 23 21 23 C 21.550781 23 22 22.550781 22 22 C 22 21.449219 21.550781 21 21 21 C 20.449219 21 20 21.449219 20 22 "></path>
<path style=" fill:#FF5722;" d="M 24 11 C 19.445313 11 13 13.089844 13 28 L 18 31.75 L 18 21 L 27 16 L 30 20 L 30 32 L 35 27 C 35 23.980469 34.746094 12.5 27 12.5 L 26 11 Z "></path>
</g>
</svg>
