<svg xmlns="http://www.w3.org/2000/svg" xmlns:xlink="http://www.w3.org/1999/xlink" viewBox="0 0 48 48" version="1.1">
<g id="surface1">
<path style=" fill:#EDE7F6;" d="M 44 24 C 44 35.046875 35.046875 44 24 44 C 12.953125 44 4 35.046875 4 24 C 4 12.953125 12.953125 4 24 4 C 35.046875 4 44 12.953125 44 24 Z "></path>
<path style=" fill:#FF9800;" d="M 28 31 C 28 31 28 35 24 35 C 20 35 20 31 20 31 "></path>
<path style=" fill:#673AB7;" d="M 24 44 C 28.480469 44 32.605469 42.507813 35.9375 40.019531 C 35.320313 32.453125 27.75 31 27.75 31 L 24 31.769531 L 20.25 31 C 20.25 31 12.679688 32.425781 12.058594 40.019531 C 15.394531 42.507813 19.519531 44 24 44 Z "></path>
<path style=" fill:#311B92;" d="M 24 37 C 27.058594 37 29.578125 34.707031 29.949219 31.75 C 29.0625 31.351563 28.34375 31.144531 27.992188 31.058594 C 27.964844 33.238281 26.191406 35 24 35 C 21.808594 35 20.035156 33.238281 20.007813 31.054688 C 19.652344 31.140625 18.933594 31.347656 18.050781 31.742188 C 18.417969 34.703125 20.9375 37 24 37 Z "></path>
<path style=" fill:#FFAB40;" d="M 32 22.5 C 32 23.328125 31.328125 24 30.5 24 C 29.671875 24 29 23.328125 29 22.5 C 29 21.671875 29.671875 21 30.5 21 C 31.328125 21 32 21.671875 32 22.5 M 19 22.5 C 19 21.671875 18.328125 21 17.5 21 C 16.671875 21 16 21.671875 16 22.5 C 16 23.328125 16.671875 24 17.5 24 C 18.328125 24 19 23.328125 19 22.5 M 28 31 L 28 27 L 20 27 L 20 31 C 20 31 20 35 24 35 C 28 35 28 31 28 31 Z "></path>
<path style=" fill:#FFCC80;" d="M 31 18.679688 C 31 12.800781 17 14.851563 17 18.679688 L 17 23.070313 C 17 26.894531 20.132813 30 24 30 C 27.867188 30 31 26.894531 31 23.070313 Z "></path>
<path style=" fill:#FF5722;" d="M 24 11 C 19.140625 11 16 15.3125 16 19.171875 L 16 21 L 18 23 L 18 19 L 27.199219 16 L 30 19 L 30 23 L 32 21 L 32 20.191406 C 32 16.972656 31.167969 13.386719 27.199219 12.597656 L 26.398438 11 Z "></path>
<path style=" fill:#784719;" d="M 26 22 C 26 21.449219 26.449219 21 27 21 C 27.550781 21 28 21.449219 28 22 C 28 22.550781 27.550781 23 27 23 C 26.449219 23 26 22.550781 26 22 M 20 22 C 20 22.550781 20.449219 23 21 23 C 21.550781 23 22 22.550781 22 22 C 22 21.449219 21.550781 21 21 21 C 20.449219 21 20 21.449219 20 22 "></path>
</g>
</svg>
